<?xml version="1.0" encoding="utf-8"?>
<!-- Generator: Adobe Illustrator 22.0.1, SVG Export Plug-In . SVG Version: 6.00 Build 0)  -->
<svg version="1.1" id="レイヤー_1" xmlns="http://www.w3.org/2000/svg" xmlns:xlink="http://www.w3.org/1999/xlink" x="0px"
	 y="0px" viewBox="0 0 595 95.6" style="enable-background:new 0 0 595 95.6;" xml:space="preserve">
<style type="text/css">
	.st0{fill:#FFFFFF;}
</style>
<title>logo</title>
<g id="レイヤー_2_1_">
	<g id="レイヤー_1-2">
		<path class="st0" d="M65.3,37.2H48.2l-1.3,1.3V66h-9.2V38.5l-1.3-1.3H19.3v-7.7h46.1V37.2z"/>
		<path class="st0" d="M86.3,29.5V66h-9.2V29.5H86.3z"/>
		<path class="st0" d="M139.3,34v20.4c0,2.5-2.1,4.6-4.6,4.6h-26.1l-1.3,1.3V66h-9.2V34c0-1.2,0.5-2.4,1.3-3.2
			c0.9-0.9,2-1.3,3.2-1.4h31.9c2.5,0,4.5,2,4.6,4.5C139.3,33.9,139.3,34,139.3,34z M128.9,51.2l1.3-1.3V38.5l-1.3-1.3h-20.2
			l-1.3,1.3v11.5l1.3,1.3H128.9z"/>
		<path class="st0" d="M192.4,61.4c0,2.5-2,4.6-4.5,4.6c0,0,0,0-0.1,0h-31.5c-2.5,0-4.6-2.1-4.6-4.6v0v-6.8h9.2V57l1.3,1.2
			c5.7,0.1,16.1,0.1,19.8,0.1l1.2-1.3v-4.5l-1.3-1.3h-26.1c-2.5,0-4.6-2.1-4.6-4.6V34c0-2.5,2-4.6,4.6-4.6h31.4
			c2.5,0,4.6,2.1,4.6,4.6v6h-9.2v-1.5l-1.3-1.3h-19.7l-1.3,1.3v3.6l1.3,1.3h26.1c2.5,0,4.6,2.1,4.6,4.6v0L192.4,61.4z"/>
		<path class="st0" d="M236.8,66h-32.5v-7.8h32.5L236.8,66z"/>
		<path class="st0" d="M292.7,66h-13.6l-16.7-15c-1.2-0.9-1.8-2.3-1.8-3.7c0-0.6,0.1-1.1,0.3-1.7c0.6-1.5,2.2-2.4,3.8-2.3h14.5
			l1.3-1.3v-3.5l-1.3-1.3h-20.1l-1.3,1.3V66h-9.1l-0.1-32c0-1.2,0.5-2.4,1.4-3.2c0.9-0.9,2-1.3,3.2-1.4h31.9c2.5,0,4.5,2.1,4.5,4.6
			v12.6c0,2.5-2.1,4.6-4.6,4.6h-8.4v1.6C276.7,52.8,283.1,58.3,292.7,66z"/>
		<path class="st0" d="M345.1,34v27.4c0,2.5-2,4.6-4.5,4.6c0,0,0,0,0,0h-31.9c-1.2,0-2.4-0.4-3.2-1.3c-0.9-0.9-1.3-2-1.3-3.2V34
			c0-2.5,2-4.6,4.6-4.6h31.9C343.1,29.4,345.1,31.5,345.1,34z M314.5,58.2h20.3l1.3-1.3V38.5l-1.3-1.3h-20.2l-1.3,1.3v18.4
			L314.5,58.2z"/>
		<path class="st0" d="M397.6,34v27.4c0,2.5-2,4.6-4.5,4.6c0,0,0,0-0.1,0h-31.9c-1.2,0-2.4-0.4-3.2-1.3c-0.9-0.9-1.3-2-1.3-3.2V34
			c0-2.5,2-4.6,4.6-4.6H393C395.5,29.4,397.6,31.5,397.6,34C397.6,34,397.6,34,397.6,34z M367,58.2h20.3l1.3-1.3V38.5l-1.3-1.3H367
			l-1.3,1.3v18.4L367,58.2z"/>
		<path class="st0" d="M469.1,34.1v32H460V41.6h-1.7c0,0-4.7,8-12.4,22.2c-0.8,1.4-2.3,2.2-3.9,2.2h-5.4c-1.5,0.1-3-0.7-3.8-2
			c-8-14.3-12.7-22.3-12.7-22.3h-1.6v24.4h-9.2v-32c0-2.5,2-4.6,4.6-4.6h6c1.6,0,3,0.8,3.9,2.1c11.1,19.5,14.6,25.5,14.6,25.5h1.9
			c0,0,3.5-6,14.7-25.5c0.8-1.3,2.3-2.2,3.9-2.1h5.6C467,29.5,469.1,31.6,469.1,34.1z"/>
		<path class="st0" d="M490.1,58.5v7.6H481v-7.6H490.1z"/>
		<path class="st0" d="M541.9,61.4c0,1.2-0.5,2.4-1.3,3.2c-0.9,0.9-2,1.4-3.2,1.4h-30.8c-2.5,0-4.6-2-4.6-4.5V51.2h9.2v5.8l1.3,1.3
			h19.1l1.3-1.3l-0.1-27.5h9.2L541.9,61.4z"/>
		<path class="st0" d="M595,61.4c0,2.5-2,4.6-4.5,4.6c0,0,0,0,0,0h-31.5c-2.5,0-4.6-2.1-4.6-4.6c0,0,0,0,0,0v-6.8h9.2V57l1.3,1.2
			c5.7,0.1,16.1,0.1,19.8,0.1l1.2-1.3v-4.5l-1.3-1.3h-26.1c-2.5,0-4.6-2.1-4.6-4.6V34c0-2.5,2-4.6,4.6-4.6h31.4
			c2.5,0,4.6,2.1,4.6,4.6v6h-9.2v-1.5l-1.2-1.3h-19.8l-1.2,1.3v3.6l1.3,1.3h26.2c2.5,0,4.6,2.1,4.6,4.6c0,0,0,0,0,0L595,61.4z"/>
		<path class="st0" d="M481.1,73.6v13.4H8.5V8.5h472.6v42.4h8.5V8.5c0-4.7-3.8-8.5-8.5-8.5H8.5C3.8,0,0,3.8,0,8.5v78.6
			c0,4.7,3.8,8.5,8.5,8.5h472.6c4.7,0,8.5-3.8,8.5-8.5v0V73.6H481.1z"/>
	</g>
</g>
</svg>
